# xmcd
#
# Track frame offsets: 
#        150
#        10742
#        24132
#        32827
#        43135
#        53112
#        63438
#        76174
#        88174
#        98718
#        106325
#        120051
#        133492
#
# Disc length: 1979 seconds
#
# Revision: 0
# Processed by: cddbd v1.5.2PL0 Copyright (c) Steve Scherf et al.
# Submitted via: ExactAudioCopy v1.3
#
DISCID=9b07b90d
DTITLE=Midnight Run - Live From the Holler Volume 2
DYEAR=2019
DGENRE=Bluegrass
TTITLE0=Fox On The Run
TTITLE1=Sitting On Top Of The World
TTITLE2=East Tennessee Blues
TTITLE3=Head Over Heels
TTITLE4=That's Alright Now Mama
TTITLE5=Little Maggie
TTITLE6=Back To The Bar Rooms
TTITLE7=Fishin' In The Dark
TTITLE8=Dooley
TTITLE9=Clinch Mountain Backstep
TTITLE10=Salty Dog Blues
TTITLE11=Kentucky Girl
TTITLE12=Lay Down My Old Guitar
EXTD=
EXTT0=
EXTT1=
EXTT2=
EXTT3=
EXTT4=
EXTT5=
EXTT6=
EXTT7=
EXTT8=
EXTT9=
EXTT10=
EXTT11=
EXTT12=
PLAYORDER=
